<svg width="26" height="29" viewBox="0 0 26 29" fill="none" xmlns="http://www.w3.org/2000/svg">
<path d="M15.4412 16.0205C13.7181 19.0049 14.8688 28.2559 15.4287 28.5791C15.9886 28.9024 23.2461 25.966 24.9692 22.9816C27.2208 19.0817 24.5484 13.4299 23.9885 13.1066C23.4286 12.7834 17.1643 13.036 15.4412 16.0205Z" fill="black"/>
<path d="M14.4412 16.0205C12.7181 19.0049 13.8688 28.2559 14.4287 28.5791C14.9886 28.9024 22.2461 25.966 23.9692 22.9816C26.2208 19.0817 23.5484 13.4299 22.9885 13.1066C22.4286 12.7834 16.1643 13.036 14.4412 16.0205Z" fill="#FFB647"/>
<path d="M25 10.765C25 16.2229 16.3744 28 15.3825 28C14.3906 28 7 18.2255 7 12.7676C7 5.63563 14.8865 0 15.8784 0C16.8703 0 25 5.30714 25 10.765Z" fill="black"/>
<path d="M24 10.765C24 16.2229 15.3744 28 14.3825 28C13.3906 28 6 18.2255 6 12.7676C6 5.63563 13.8865 0 14.8784 0C15.8703 0 24 5.30714 24 10.765Z" fill="#FF9A00"/>
<path d="M15.3448 11.0827C17.7107 15.1807 16.1953 27.8458 15.434 28.2853C14.6727 28.7249 4.76281 24.661 2.39686 20.563C-0.694807 15.2081 2.91553 7.48178 3.67686 7.04223C4.4382 6.60267 12.9788 6.98477 15.3448 11.0827Z" fill="black"/>
<path d="M14.4155 11.2052C16.8173 15.3653 15.4454 28.1263 14.6916 28.5615C13.9379 28.9966 4.02038 24.7888 1.61857 20.6288C-1.51996 15.1927 1.99296 7.43708 2.7467 7.0019C3.50044 6.56673 12.0137 7.04517 14.4155 11.2052Z" fill="#FFAD31"/>
<rect x="9" y="10.3871" width="1.60168" height="2.62552" rx="0.800842" transform="rotate(-60 9 10.3871)" fill="#D9D9D9"/>
<rect x="16.0045" y="3.2262" width="1.60168" height="2.62552" rx="0.800842" transform="rotate(-54 16.0045 3.2262)" fill="#D9D9D9"/>
</svg>
